<svg width="54" height="57" viewBox="0 0 54 57" fill="none" xmlns="http://www.w3.org/2000/svg">
<path d="M5.30665 56.3262L0.135254 56.1846C0.135254 56.1846 2.59187 42.311 10.5447 39.9793C12.0353 39.5462 13.6675 39.1049 15.308 38.8634C16.2823 38.7135 17.8229 38.4886 18.5807 38.2055C18.7556 36.8981 18.206 35.2326 17.5897 33.3422C17.1067 31.8766 16.6071 30.3693 16.3406 28.7205C15.8243 25.506 16.682 22.6663 18.7556 20.7094C21.2872 18.336 25.376 17.5782 29.9894 18.6275C32.6209 19.2271 34.5612 20.5178 36.2684 21.6504C38.7084 23.2742 40.1324 24.0987 43.1136 22.0917C46.7194 19.6601 42.0061 10.1417 39.4995 4.64557L48.8513 0.748291C50.1087 3.49637 56.1795 17.6365 52.174 25.7059C50.8249 28.4207 48.5015 30.2194 45.4537 30.8939C38.8249 32.3762 34.9443 29.7947 32.113 27.9127C30.7722 27.0216 29.598 26.3221 28.3239 25.9557C19.4718 23.4325 31.8298 36.4567 26.0422 42.311C22.5696 45.8169 14.0839 46.7412 13.5342 46.8745C8.07139 48.1902 5.30665 56.3262 5.30665 56.3262Z" fill="#F48FB1"/>
</svg>
