<svg width="28" height="59" viewBox="0 0 28 59" fill="none" xmlns="http://www.w3.org/2000/svg">
<path d="M5.84152 58.9689L2.22737 55.7295C8.86441 48.318 7.11563 42.8718 5.84152 38.9079C5.58337 38.1085 5.34187 37.3507 5.18365 36.6262C4.61737 34.0613 4.50079 31.8295 4.67567 29.8809C2.12744 26.7081 1.00323 23.3854 0.92828 23.1606C-0.62064 18.4722 0.545213 13.9004 3.21835 9.61169C8.62291 0.909424 18.4078 0.909424 18.4078 0.909424L21.6722 9.645C19.1905 9.54507 11.0546 9.66998 8.55629 13.6089C5.40016 18.5721 7.47372 21.6366 7.62361 21.9864C8.23152 21.1953 8.84776 20.5624 9.39737 20.0711C13.3863 16.5319 16.8505 16.0239 19.0573 16.2237C21.5389 16.4486 23.7873 17.6977 25.3946 19.7463C27.1517 21.9947 27.8762 24.9177 27.3182 27.5742C26.7769 30.164 25.0531 32.3542 22.4633 33.7449C17.9414 36.1765 14.1774 35.8434 11.6541 35.0023C11.6708 35.0606 11.6791 35.1272 11.6958 35.1855C11.7874 35.6019 11.9706 36.1848 12.1871 36.8594C13.6611 41.4228 16.4008 48.6678 5.84152 58.9689ZM11.9623 27.7157C12.4452 28.0655 12.9532 28.3569 13.4779 28.5651C15.2266 29.2646 17.1336 29.0315 19.2988 27.8656C20.5729 27.1828 20.7228 26.4499 20.7728 26.2084C20.9227 25.484 20.6728 24.5596 20.1316 23.8684C19.6569 23.2605 19.1073 22.9441 18.4494 22.8774C17.2003 22.7692 15.5098 23.5603 13.8193 25.0676C13.0115 25.7921 12.3953 26.6831 11.9623 27.7157Z" fill="#F44336"/>
</svg>
